<?xml version="1.0" encoding="utf-8"?>
<!-- Generator: Adobe Illustrator 14.0.0, SVG Export Plug-In . SVG Version: 6.00 Build 43363)  -->
<!DOCTYPE svg PUBLIC "-//W3C//DTD SVG 1.1//EN" "http://www.w3.org/Graphics/SVG/1.1/DTD/svg11.dtd">
<svg version="1.1" id="Layer_1" xmlns="http://www.w3.org/2000/svg" xmlns:xlink="http://www.w3.org/1999/xlink" x="0px" y="0px"
	 width="20px" height="20px" viewBox="0 0 20 20" enable-background="new 0 0 20 20" xml:space="preserve">
<g>
	<path fill-rule="evenodd" clip-rule="evenodd" fill="#934521" d="M12.957,5.062c-0.602-0.231-1.499-0.166-2.073-0.427
		c-0.665-1.096,0.756-1.14,0.977-1.524c0.139-0.241,0.103-0.669-0.245-0.852c-0.223,0-0.446,0-0.671,0
		c-1.249,0.313-1.988,1.14-2.133,2.559C6.535,5.108,2.53,6.037,4.24,8.843c1.554-0.58,3.134-1.134,5.182-1.22
		c0.346-0.102,1.116-0.102,1.462,0c0.744,0.027,1.395,0.149,2.073,0.244c1.053,0.267,2.071,0.569,2.986,0.976
		C17.727,6.748,14.729,5.342,12.957,5.062z"/>
	<path fill-rule="evenodd" clip-rule="evenodd" fill="#EC9222" d="M5.582,9.514C5.176,9.638,4.822,9.81,4.422,9.94
		c0.126,3.476,1.3,5.436,3.476,6.644c0.769,0.428,1.743,0.686,2.195,1.281c0.04,0,0.081,0,0.121,0c0-0.021,0-0.041,0-0.061
		c0.62-0.649,1.5-0.782,2.195-1.158c2.225-1.206,3.308-3.383,3.476-6.646c-0.651-0.366-1.423-0.61-2.257-0.791
		c-1.813-0.555-4.834-0.6-6.706-0.063L5.582,9.514z"/>
</g>
</svg>
