<svg version="1.1" xmlns="http://www.w3.org/2000/svg" xmlns:xlink="http://www.w3.org/1999/xlink" x="0px" y="0px" width="100px"
	 height="100px" viewBox="0 0 100 100" enable-background="new 0 0 100 100" xml:space="preserve">
<g id="Layer_5">
	<path fill="#A7A9AC" d="M97.398,88.228c0,5.1-4.136,9.235-9.235,9.235H13.123c-5.101,0-9.236-4.136-9.236-9.235V13.187
		c0-5.101,4.135-9.236,9.236-9.236h75.041c5.1,0,9.235,4.135,9.235,9.236V88.228z"/>
	<path fill="#FFFFFF" d="M96.244,87.072c0,5.101-4.136,9.236-9.236,9.236h-75.04c-5.101,0-9.236-4.136-9.236-9.236v-75.04
		c0-5.101,4.135-9.236,9.236-9.236h75.04c5.101,0,9.236,4.135,9.236,9.236V87.072z"/>
	<g>
		<path fill-rule="evenodd" clip-rule="evenodd" fill="#934521" d="M27.271,76.973c-0.601-0.231-1.499-0.166-2.072-0.427
			c-0.666-1.096,0.755-1.14,0.975-1.524c0.138-0.241,0.103-0.669-0.244-0.852c-0.223,0-0.446,0-0.67,0
			c-1.25,0.313-1.988,1.14-2.134,2.559c-2.275,0.291-6.282,1.22-4.572,4.025c1.554-0.58,3.135-1.134,5.182-1.22
			c0.346-0.102,1.117-0.102,1.463,0c0.744,0.027,1.394,0.149,2.072,0.244c1.054,0.267,2.071,0.569,2.987,0.976
			C32.04,78.659,29.042,77.253,27.271,76.973z"/>
		<path fill-rule="evenodd" clip-rule="evenodd" fill="#EC9222" d="M19.894,81.425c-0.404,0.124-0.76,0.296-1.158,0.427
			c0.126,3.476,1.299,5.436,3.475,6.644c0.77,0.428,1.744,0.686,2.195,1.281c0.041,0,0.081,0,0.122,0c0-0.021,0-0.041,0-0.061
			c0.62-0.649,1.499-0.782,2.195-1.158c2.225-1.206,3.308-3.383,3.475-6.646c-0.65-0.366-1.421-0.61-2.256-0.791
			c-1.813-0.555-4.833-0.6-6.706-0.063L19.894,81.425z"/>
	</g>
	<g>
		<path fill-rule="evenodd" clip-rule="evenodd" fill="#934521" d="M43.886,76.973c-0.602-0.231-1.5-0.166-2.073-0.427
			c-0.666-1.096,0.754-1.14,0.976-1.524c0.138-0.241,0.103-0.669-0.245-0.852c-0.223,0-0.446,0-0.671,0
			c-1.249,0.313-1.989,1.14-2.133,2.559c-2.276,0.291-6.282,1.22-4.572,4.025c1.554-0.58,3.135-1.134,5.182-1.22
			c0.346-0.102,1.117-0.102,1.463,0c0.744,0.027,1.395,0.149,2.073,0.244c1.053,0.267,2.071,0.569,2.986,0.976
			C48.655,78.659,45.657,77.253,43.886,76.973z"/>
		<path fill-rule="evenodd" clip-rule="evenodd" fill="#EC9222" d="M36.51,81.425c-0.406,0.124-0.76,0.296-1.16,0.427
			c0.126,3.476,1.3,5.436,3.476,6.644c0.77,0.428,1.743,0.686,2.195,1.281c0.041,0,0.081,0,0.122,0c0-0.021,0-0.041,0-0.061
			c0.621-0.649,1.5-0.782,2.196-1.158c2.224-1.206,3.308-3.383,3.475-6.646c-0.652-0.366-1.422-0.61-2.256-0.791
			c-1.813-0.555-4.834-0.6-6.706-0.063L36.51,81.425z"/>
	</g>
	<g>
		<path fill-rule="evenodd" clip-rule="evenodd" fill="#934521" d="M60.501,76.973c-0.602-0.231-1.5-0.166-2.072-0.427
			c-0.665-1.096,0.754-1.14,0.977-1.524c0.137-0.241,0.103-0.669-0.245-0.852c-0.224,0-0.446,0-0.671,0
			c-1.249,0.313-1.988,1.14-2.134,2.559c-2.275,0.291-6.282,1.22-4.572,4.025c1.554-0.58,3.135-1.134,5.182-1.22
			c0.347-0.102,1.117-0.102,1.464,0c0.743,0.027,1.394,0.149,2.072,0.244c1.054,0.267,2.072,0.569,2.987,0.976
			C65.271,78.659,62.273,77.253,60.501,76.973z"/>
		<path fill-rule="evenodd" clip-rule="evenodd" fill="#EC9222" d="M53.125,81.425c-0.405,0.124-0.76,0.296-1.16,0.427
			c0.128,3.476,1.302,5.436,3.476,6.644c0.771,0.428,1.743,0.686,2.195,1.281c0.041,0,0.081,0,0.122,0c0-0.021,0-0.041,0-0.061
			c0.62-0.649,1.499-0.782,2.196-1.158c2.225-1.206,3.307-3.383,3.475-6.646c-0.651-0.366-1.423-0.61-2.257-0.791
			c-1.813-0.555-4.834-0.6-6.705-0.063L53.125,81.425z"/>
	</g>
	<g>
		<path fill-rule="evenodd" clip-rule="evenodd" fill="#934521" d="M77.116,76.973c-0.602-0.231-1.499-0.166-2.073-0.427
			c-0.665-1.096,0.756-1.14,0.977-1.524c0.139-0.241,0.103-0.669-0.245-0.852c-0.223,0-0.446,0-0.671,0
			c-1.249,0.313-1.988,1.14-2.133,2.559c-2.276,0.291-6.281,1.22-4.571,4.025c1.554-0.58,3.134-1.134,5.182-1.22
			c0.346-0.102,1.116-0.102,1.462,0c0.744,0.027,1.395,0.149,2.073,0.244c1.053,0.267,2.071,0.569,2.986,0.976
			C81.886,78.659,78.888,77.253,77.116,76.973z"/>
		<path fill-rule="evenodd" clip-rule="evenodd" fill="#EC9222" d="M69.741,81.425c-0.406,0.124-0.76,0.296-1.16,0.427
			c0.126,3.476,1.3,5.436,3.476,6.644c0.769,0.428,1.743,0.686,2.195,1.281c0.04,0,0.081,0,0.121,0c0-0.021,0-0.041,0-0.061
			c0.62-0.649,1.5-0.782,2.195-1.158c2.225-1.206,3.308-3.383,3.476-6.646c-0.651-0.366-1.423-0.61-2.257-0.791
			c-1.813-0.555-4.834-0.6-6.706-0.063L69.741,81.425z"/>
	</g>
</g>
<g id="Layer_4">
	<g>
		<g>
			<path fill="#FFFFFF" d="M35.234,11.798c-0.772-0.784-1.403-0.525-1.403,0.575v14.038c0,1.1-0.592,2.678-1.316,3.506
				L20.139,44.078c-0.724,0.828-0.529,1.943,0.432,2.478l32.581,18.115c0.962,0.534,2.443,0.399,3.292-0.299l22.166-18.239
				c0.849-0.698,1.034-2.012,0.411-2.919l-8.846-12.865c-0.623-0.907-1.133-2.549-1.133-3.648V12.373c0-1.1-0.605-1.334-1.347-0.521
				l-6.109,6.711c-0.741,0.813-2.247,1.479-3.347,1.479H45.355c-1.1,0-2.631-0.642-3.403-1.425L35.234,11.798z"/>
			<path fill="none" stroke="#000000" stroke-width="2" d="M35.234,11.798c-0.772-0.784-1.403-0.525-1.403,0.575v14.038
				c0,1.1-0.592,2.678-1.316,3.506L20.139,44.078c-0.724,0.828-0.529,1.943,0.432,2.478l32.581,18.115
				c0.962,0.534,2.443,0.399,3.292-0.299l22.166-18.239c0.849-0.698,1.034-2.012,0.411-2.919l-8.846-12.865
				c-0.623-0.907-1.133-2.549-1.133-3.648V12.373c0-1.1-0.605-1.334-1.347-0.521l-6.109,6.711c-0.741,0.813-2.247,1.479-3.347,1.479
				H45.355c-1.1,0-2.631-0.642-3.403-1.425L35.234,11.798z"/>
		</g>
		<polygon stroke="#000000" points="20.266,45.729 51.869,33.606 63.559,39.09 70.341,32.163 79.721,44.574 76.176,48.136 
			68.465,40.678 56.487,40.678 37.15,55.541 		"/>
		<g>
			<path d="M67.354,53.553c0.055,0.062,0.1,0.045,0.1-0.038v-7.203c0-0.083-0.067-0.15-0.15-0.15h-6.337
				c-0.083,0-0.105,0.051-0.051,0.112L67.354,53.553z"/>
			<path fill="none" stroke="#000000" d="M67.354,53.553c0.055,0.062,0.1,0.045,0.1-0.038v-7.203c0-0.083-0.067-0.15-0.15-0.15
				h-6.337c-0.083,0-0.105,0.051-0.051,0.112L67.354,53.553z"/>
		</g>
		<ellipse fill="#FFFFFF" cx="49.416" cy="38.657" rx="1.443" ry="1.804"/>
		<ellipse fill="#FFFFFF" cx="71.351" cy="38.657" rx="1.443" ry="1.804"/>
	</g>
</g>
</svg>
