<?xml version="1.0" encoding="utf-8"?>
<!-- Generator: Adobe Illustrator 14.0.0, SVG Export Plug-In . SVG Version: 6.00 Build 43363)  -->
<!DOCTYPE svg PUBLIC "-//W3C//DTD SVG 1.1//EN" "http://www.w3.org/Graphics/SVG/1.1/DTD/svg11.dtd">
<svg version="1.1" id="Layer_1" xmlns="http://www.w3.org/2000/svg" xmlns:xlink="http://www.w3.org/1999/xlink" x="0px" y="0px"
	 width="80px" height="80px" viewBox="0 0 80 80" enable-background="new 0 0 80 80" xml:space="preserve">
<g>
	<g>
		<path fill="#B56A29" d="M75.955,46.582L64.629,30.11c-0.623-0.906-1.133-2.548-1.133-3.648V8.045c0-1.1-0.605-1.334-1.347-0.521
			l-8.073,8.869c-0.741,0.813-2.247,1.479-3.347,1.479H34.077c-0.206,0-0.429-0.029-0.658-0.07L34.333,21L29,33.333l-10.667,12
			l39.304,18.902l17.906-14.734C76.393,48.803,76.578,47.489,75.955,46.582z"/>
		<path fill="#7C4813" d="M29,33.333L34.333,21l-0.914-3.199c-0.992-0.181-2.119-0.717-2.746-1.354L21.831,7.47
			c-0.772-0.784-1.403-0.525-1.403,0.575v18.063c0,1.1-0.592,2.678-1.316,3.506L3.386,47.607c-0.724,0.828-0.529,1.943,0.432,2.478
			L44.45,72.677c0.962,0.534,2.443,0.399,3.292-0.299l9.896-8.143L18.333,45.333L29,33.333z"/>
	</g>
	<polygon fill="#CCCCCC" points="62.103,47.362 70.043,55.043 77,48.375 64.482,28.794 56.847,36.593 43.578,30.369 7.51,44.203 
		3,49.363 29.011,63.825 50.429,47.362 	"/>
	<polygon stroke="#000000" points="3.835,49.29 42.491,34.463 56.789,41.17 65.085,32.698 76.559,47.879 72.223,52.234 
		62.791,43.112 48.14,43.112 24.487,61.293 	"/>
	<g>
		<path d="M60.979,58.75c0.729,0.824,1.325,0.598,1.325-0.502v-5.179c0-1.1-0.9-2-2-2h-4.119c-1.1,0-1.403,0.674-0.675,1.498
			L60.979,58.75z"/>
		<path fill="none" stroke="#000000" d="M60.979,58.75c0.729,0.824,1.325,0.598,1.325-0.502v-5.179c0-1.1-0.9-2-2-2h-4.119
			c-1.1,0-1.403,0.674-0.675,1.498L60.979,58.75z"/>
	</g>
	<polygon points="3.835,49.29 42.491,34.463 56.789,41.17 65.085,32.698 76.559,47.879 72.223,52.234 62.791,43.112 48.14,43.112 
		24.487,61.293 	"/>
	<ellipse fill="#FFFFFF" cx="39.491" cy="40.641" rx="1.765" ry="2.207"/>
	<ellipse fill="#FFFFFF" cx="66.321" cy="40.641" rx="1.765" ry="2.207"/>
</g>
<path fill="none" stroke="#000000" stroke-width="2" d="M21.831,7.47c-0.772-0.784-1.403-0.525-1.403,0.575v18.063
	c0,1.1-0.592,2.678-1.316,3.506L3.386,47.607c-0.724,0.828-0.529,1.943,0.432,2.478L44.45,72.677
	c0.962,0.534,2.443,0.399,3.292-0.299l27.802-22.877c0.849-0.698,1.034-2.012,0.411-2.919L64.629,30.11
	c-0.623-0.906-1.133-2.548-1.133-3.648V8.045c0-1.1-0.605-1.334-1.347-0.521l-8.073,8.869c-0.741,0.813-2.247,1.479-3.347,1.479
	H34.077c-1.1,0-2.632-0.641-3.403-1.425L21.831,7.47z"/>
</svg>
