<?xml version="1.0" encoding="utf-8"?>
<!-- Generator: Adobe Illustrator 14.0.0, SVG Export Plug-In . SVG Version: 6.00 Build 43363)  -->
<!DOCTYPE svg PUBLIC "-//W3C//DTD SVG 1.1//EN" "http://www.w3.org/Graphics/SVG/1.1/DTD/svg11.dtd">
<svg version="1.1" id="Layer_1" xmlns="http://www.w3.org/2000/svg" xmlns:xlink="http://www.w3.org/1999/xlink" x="0px" y="0px"
	 width="80px" height="80px" viewBox="0 0 80 80" enable-background="new 0 0 80 80" xml:space="preserve">
<g>
	<g>
		<path fill="#FFFFFF" d="M21.831,7.47c-0.772-0.784-1.403-0.525-1.403,0.575v18.063c0,1.1-0.592,2.678-1.316,3.506L3.386,47.607
			c-0.724,0.828-0.529,1.943,0.432,2.478L44.45,72.677c0.962,0.534,2.443,0.399,3.292-0.299l27.802-22.877
			c0.849-0.698,1.034-2.012,0.411-2.919L64.629,30.11c-0.623-0.906-1.133-2.548-1.133-3.648V8.045c0-1.1-0.605-1.334-1.347-0.521
			l-8.073,8.869c-0.741,0.813-2.247,1.479-3.347,1.479H34.077c-1.1,0-2.632-0.641-3.403-1.425L21.831,7.47z"/>
		<path fill="none" stroke="#000000" stroke-width="2" d="M21.831,7.47c-0.772-0.784-1.403-0.525-1.403,0.575v18.063
			c0,1.1-0.592,2.678-1.316,3.506L3.386,47.607c-0.724,0.828-0.529,1.943,0.432,2.478L44.45,72.677
			c0.962,0.534,2.443,0.399,3.292-0.299l27.802-22.877c0.849-0.698,1.034-2.012,0.411-2.919L64.629,30.11
			c-0.623-0.906-1.133-2.548-1.133-3.648V8.045c0-1.1-0.605-1.334-1.347-0.521l-8.073,8.869c-0.741,0.813-2.247,1.479-3.347,1.479
			H34.077c-1.1,0-2.632-0.641-3.403-1.425L21.831,7.47z"/>
	</g>
	<polygon stroke="#000000" points="3.835,49.29 42.491,34.463 56.789,41.17 65.085,32.698 76.559,47.879 72.223,52.234 
		62.791,43.112 48.14,43.112 24.487,61.293 	"/>
	<g>
		<path d="M61.455,58.886c0.055,0.062,0.1,0.045,0.1-0.038V49.97c0-0.083-0.067-0.15-0.15-0.15h-7.818
			c-0.083,0-0.105,0.051-0.051,0.112L61.455,58.886z"/>
		<path fill="none" stroke="#000000" d="M61.455,58.886c0.055,0.062,0.1,0.045,0.1-0.038V49.97c0-0.083-0.067-0.15-0.15-0.15h-7.818
			c-0.083,0-0.105,0.051-0.051,0.112L61.455,58.886z"/>
	</g>
	<ellipse fill="#FFFFFF" cx="39.491" cy="40.641" rx="1.765" ry="2.207"/>
	<ellipse fill="#FFFFFF" cx="66.321" cy="40.641" rx="1.765" ry="2.207"/>
</g>
</svg>
